<svg width="146" height="32" viewBox="0 0 146 32" fill="none" xmlns="http://www.w3.org/2000/svg">
<path d="M26.8767 30.5764L26.8914 29.0786H36.0979L36.1126 30.5764H26.8693H26.8767ZM26.9061 30.5764C26.6926 30.5764 26.5305 30.5415 26.4201 30.4788C26.3096 30.4162 26.2286 30.3186 26.1917 30.2072C26.1476 30.0887 26.1328 29.9633 26.1328 29.831V21.6039C26.1328 21.3183 26.2138 21.1024 26.3759 20.9561C26.5379 20.8098 26.7809 20.7401 27.0976 20.7401H32.3342C33.3064 20.7401 34.1314 20.9212 34.8016 21.2835C35.4792 21.6457 35.9874 22.1612 36.3335 22.8369C36.6797 23.5127 36.8491 24.3416 36.8491 25.3308V29.817C36.8491 29.9633 36.8343 30.0957 36.7975 30.2072C36.7607 30.3256 36.687 30.4162 36.5766 30.4788C36.4661 30.5485 36.2967 30.5764 36.0757 30.5764C35.8621 30.5764 35.7001 30.5485 35.5897 30.4928C35.4792 30.437 35.3982 30.3534 35.3613 30.249C35.3245 30.1445 35.3024 30.033 35.3024 29.9215V25.3657C35.3024 24.6691 35.1919 24.0839 34.9783 23.6171C34.7648 23.1504 34.4407 22.8021 34.0135 22.5722C33.5863 22.3423 33.0413 22.2239 32.3858 22.2239H27.6942V29.8031C27.6942 29.9494 27.6722 30.0818 27.6353 30.1932C27.5911 30.3117 27.5174 30.4022 27.407 30.4649C27.2965 30.5346 27.1271 30.5624 26.9061 30.5624" fill="#BDAB73"/>
<path d="M39.6028 25.8742C39.3892 25.8742 39.2346 25.8394 39.1314 25.7627C39.0283 25.6931 38.9546 25.6025 38.9105 25.4911C38.8663 25.3796 38.8516 25.2612 38.8516 25.1288V21.4716C38.8516 21.3392 38.8736 21.2208 38.9105 21.1023C38.9473 20.9909 39.0283 20.9003 39.1388 20.8376C39.2492 20.768 39.4113 20.7401 39.6249 20.7401C39.8458 20.7401 40.0152 20.7749 40.1257 20.8446C40.2362 20.9143 40.3098 21.0048 40.3467 21.1093C40.3835 21.2138 40.3982 21.3392 40.3982 21.4855V25.1427C40.3982 25.2751 40.3761 25.4005 40.3393 25.505C40.3025 25.6164 40.2214 25.707 40.111 25.7697C40.0005 25.8394 39.8311 25.8672 39.6101 25.8672" fill="#BDAB73"/>
<path d="M45.4158 30.4578C45.1581 30.2837 45.0034 30.1095 44.9592 29.9423C44.915 29.7751 44.9739 29.6079 45.136 29.4408C45.7841 28.7859 46.3733 28.1311 46.9183 27.4763C47.4634 26.8215 47.9568 26.1667 48.4061 25.5118C48.848 24.857 49.2457 24.2091 49.5845 23.5613C49.9233 22.9134 50.2032 22.2795 50.4315 21.6595L51.5363 22.5721C51.2564 23.3802 50.8661 24.2022 50.3652 25.0381C49.8644 25.8741 49.2899 26.724 48.6418 27.5808C47.9936 28.4376 47.2719 29.3154 46.4912 30.214C46.388 30.3394 46.2776 30.4369 46.1745 30.5066C46.0714 30.5762 45.9535 30.6111 45.8283 30.6111C45.7031 30.6111 45.5705 30.5553 45.4158 30.4439M51.5142 22.6L50.4389 22.2308H43.4125C43.1179 22.2308 42.9043 22.1681 42.7644 22.0496C42.6245 21.9243 42.5434 21.7292 42.5213 21.4505L42.3961 18.8591C42.3814 18.7128 42.3961 18.5875 42.4403 18.483C42.4772 18.3785 42.5655 18.2949 42.6907 18.2322C42.8233 18.1695 42.9927 18.1416 43.221 18.1416C43.4346 18.1416 43.5819 18.1764 43.6777 18.2391C43.7734 18.3018 43.8397 18.3993 43.8765 18.5108C43.9134 18.6292 43.9354 18.7616 43.9354 18.9149L44.0386 20.7261H50.2621C50.6377 20.7261 50.9323 20.8027 51.1606 20.9559C51.3816 21.1092 51.5289 21.3321 51.5878 21.6108C51.6541 21.8964 51.6247 22.2168 51.5068 22.586" fill="#BDAB73"/>
<path d="M56.5355 29.0995L56.0936 28.3541L56.5134 28.2915C56.8522 28.173 57.1542 27.978 57.4193 27.7202C57.6845 27.4625 57.9128 27.1351 58.1043 26.7589C58.2958 26.3758 58.4505 25.9508 58.561 25.4841C58.6714 25.0173 58.7304 24.5228 58.7451 24.0073L58.8482 21.4298C58.8629 21.3113 58.885 21.1929 58.9292 21.0884C58.966 20.9839 59.0471 20.9003 59.1575 20.8376C59.268 20.775 59.43 20.7471 59.6436 20.7471C59.8646 20.7471 60.034 20.7819 60.1518 20.8446C60.2697 20.9143 60.3507 20.9979 60.3875 21.1023C60.4317 21.2068 60.4464 21.3253 60.4317 21.4576L60.2917 23.8679C60.2549 24.5785 60.1592 25.2263 60.0045 25.8115C59.8498 26.3967 59.6289 26.9122 59.349 27.358C59.0692 27.8038 58.7304 28.173 58.3326 28.4656C57.9349 28.7582 57.4783 28.9602 56.9627 29.0717L56.5429 29.1065L56.5355 29.0995ZM59.5405 30.646C58.5462 30.646 57.6698 30.5137 56.9038 30.2559C56.1452 29.9982 55.4971 29.629 54.9741 29.1553C54.4439 28.6816 54.0535 28.1312 53.7883 27.4903C53.5232 26.8564 53.3906 26.1598 53.3906 25.4075V21.4855C53.3906 21.3531 53.4127 21.2277 53.4496 21.1093C53.4937 20.9909 53.5674 20.9003 53.6779 20.8376C53.7884 20.768 53.9577 20.7401 54.1787 20.7401C54.3923 20.7401 54.5543 20.775 54.6648 20.8376C54.7753 20.9073 54.8489 20.9979 54.8931 21.1093C54.9373 21.2277 54.952 21.3601 54.952 21.4994V25.4075C54.952 26.1946 55.1361 26.8704 55.497 27.4277C55.8579 27.9849 56.3882 28.4168 57.0806 28.7234C57.7729 29.0299 58.6125 29.1831 59.5921 29.1831C60.5716 29.1831 61.4628 29.0229 62.1551 28.7094C62.8475 28.396 63.3704 27.9501 63.7313 27.3789C64.0921 26.8077 64.2689 26.1459 64.2689 25.3935V21.388C64.2689 21.2765 64.291 21.172 64.3278 21.0745C64.372 20.977 64.4457 20.8934 64.5635 20.8307C64.6814 20.768 64.8434 20.7401 65.057 20.7401C65.2706 20.7401 65.4326 20.7749 65.5431 20.8516C65.6536 20.9212 65.7272 21.0188 65.7714 21.1232C65.8156 21.2347 65.8303 21.3601 65.8303 21.5064V25.4423C65.8303 26.1946 65.6904 26.8913 65.4179 27.5182C65.138 28.1521 64.7403 28.6955 64.2026 29.1622C63.6723 29.629 63.0095 29.9912 62.2288 30.249C61.4407 30.5067 60.5495 30.6391 59.5405 30.6391" fill="#BDAB73"/>
<path d="M68.6809 30.5762C68.4674 30.5762 68.3127 30.5413 68.2096 30.4786C68.1065 30.416 68.0328 30.3184 67.9886 30.207C67.9444 30.0885 67.9297 29.9631 67.9297 29.8308V21.4714C67.9297 21.339 67.9518 21.2136 67.9886 21.1091C68.0254 20.9977 68.1065 20.9071 68.2169 20.8444C68.3274 20.7747 68.4894 20.7469 68.703 20.7469C68.924 20.7469 69.0934 20.7817 69.2038 20.8583C69.3143 20.928 69.388 21.0186 69.4248 21.123C69.4617 21.2275 69.4764 21.3529 69.4764 21.4992V29.8586C69.4764 29.991 69.4543 30.1164 69.4175 30.2279C69.3806 30.3393 69.2996 30.4299 69.1891 30.4926C69.0787 30.5622 68.9093 30.5901 68.6883 30.5901" fill="#BDAB73"/>
<path d="M79.8692 30.5763C79.6556 30.5763 79.4936 30.5484 79.3831 30.4927C79.2726 30.4369 79.1916 30.3533 79.1474 30.2488C79.1032 30.1444 79.0811 30.0329 79.0811 29.9214V25.8532C79.0811 25.2541 79.0148 24.7316 78.8823 24.2719C78.7497 23.8191 78.5435 23.4359 78.2709 23.1364C77.9984 22.8299 77.6596 22.6069 77.2619 22.4537C76.8642 22.3074 76.3928 22.2308 75.8405 22.2308H71.959C71.8044 22.2308 71.6718 22.2099 71.5466 22.175C71.4214 22.1332 71.3257 22.0636 71.2594 21.9521C71.1857 21.8407 71.1562 21.6874 71.1562 21.4854C71.1562 21.2764 71.1931 21.1231 71.2594 21.0186C71.333 20.9211 71.4214 20.8445 71.5393 20.8027C71.6571 20.7609 71.7897 20.733 71.9443 20.733H75.7889C76.5991 20.733 77.3061 20.8445 77.9174 21.0604C78.5287 21.2764 79.0369 21.5968 79.4346 22.0218C79.8397 22.4467 80.1417 22.9761 80.3479 23.6101C80.5541 24.244 80.6573 24.9824 80.6573 25.8184V29.803C80.6573 29.9493 80.6352 30.0817 80.5984 30.1931C80.5542 30.3115 80.4805 30.4021 80.37 30.4648C80.2596 30.5345 80.0975 30.5623 79.8839 30.5623" fill="#BDAB73"/>
<path d="M83.6106 25.8742C83.397 25.8742 83.2424 25.8394 83.1393 25.7627C83.0361 25.6931 82.9625 25.6025 82.9183 25.4911C82.8741 25.3796 82.8594 25.2612 82.8594 25.1288V21.4716C82.8594 21.3392 82.8814 21.2208 82.9183 21.1023C82.9551 20.9909 83.0361 20.9003 83.1466 20.8376C83.2571 20.768 83.4191 20.7401 83.6327 20.7401C83.8537 20.7401 84.0231 20.7749 84.1335 20.8446C84.244 20.9143 84.3176 21.0048 84.3545 21.1093C84.3913 21.2138 84.406 21.3392 84.406 21.4855V25.1427C84.406 25.2751 84.3839 25.4005 84.3471 25.505C84.3103 25.6164 84.2293 25.707 84.1188 25.7697C84.0083 25.8394 83.8389 25.8672 83.618 25.8672" fill="#BDAB73"/>
<path d="M1.2164 13.1052C1.06173 13.1052 0.929158 13.0843 0.803951 13.0425C0.678744 13.0007 0.583024 12.9241 0.509373 12.8196C0.443086 12.7151 0.40625 12.5618 0.40625 12.3598C0.40625 12.1508 0.443086 11.9906 0.509373 11.8861C0.583024 11.7816 0.678744 11.705 0.803951 11.6701C0.929158 11.6353 1.05439 11.6144 1.2017 11.6144H2.87355V4.33475L3.52169 4.80147C3.16079 4.8154 2.84412 4.81542 2.57897 4.81542C2.31383 4.81542 2.10761 4.79452 1.94558 4.74575C1.79091 4.70396 1.67304 4.63428 1.59202 4.53675C1.51837 4.43923 1.4742 4.31384 1.4742 4.14665C1.4742 3.83317 1.54785 3.61722 1.70252 3.4988C1.85719 3.38037 2.15915 3.31071 2.61579 3.29677L7.43257 3.26195C8.5447 3.24802 9.47273 3.43611 10.2166 3.81229C10.9605 4.18846 11.5202 4.75272 11.8958 5.50506C12.2715 6.25741 12.4556 7.2048 12.4556 8.34726V12.3319C12.4556 12.4782 12.4409 12.6106 12.404 12.722C12.3672 12.8404 12.2936 12.931 12.1831 12.9937C12.0726 13.0634 11.9032 13.0912 11.6823 13.0912C11.4613 13.0912 11.3067 13.0634 11.1962 13.0076C11.0857 12.9519 11.0047 12.8683 10.9679 12.7638C10.9237 12.6593 10.9089 12.5479 10.9089 12.4364V8.36816C10.9089 7.56008 10.7837 6.89134 10.5407 6.35494C10.2976 5.82551 9.92938 5.42146 9.45065 5.14978C8.97192 4.8781 8.36796 4.73878 7.63881 4.73878H4.45707V12.0045C4.45707 12.3598 4.38344 12.6315 4.2435 12.8126C4.10356 12.9937 3.9047 13.0843 3.64692 13.0843H1.2017L1.2164 13.1052Z" fill="#174A75"/>
<path d="M15.3997 13.1052C15.1861 13.1052 15.0314 13.0703 14.9283 13.0076C14.8252 12.9449 14.7515 12.8474 14.7073 12.736C14.6631 12.6175 14.6484 12.4921 14.6484 12.3598V4.00037C14.6484 3.86801 14.6705 3.74263 14.7073 3.63813C14.7442 3.52668 14.8252 3.43611 14.9357 3.37342C15.0462 3.30375 15.2082 3.27588 15.4218 3.27588C15.6427 3.27588 15.8121 3.31071 15.9226 3.38734C16.0331 3.457 16.1067 3.54757 16.1435 3.65206C16.1804 3.75655 16.1951 3.88195 16.1951 4.02824V12.3877C16.1951 12.52 16.173 12.6454 16.1362 12.7499C16.0993 12.8614 16.0183 12.9519 15.9078 13.0146C15.7974 13.0843 15.628 13.1121 15.407 13.1121" fill="#174A75"/>
<path d="M21.4261 11.6284L20.9842 10.883L21.4041 10.8203C21.7429 10.7019 22.0448 10.5068 22.31 10.249C22.5751 9.9913 22.8034 9.66388 22.9949 9.28771C23.1864 8.90457 23.3411 8.47964 23.4515 8.01291C23.562 7.54617 23.6209 7.05155 23.6357 6.53606L23.7388 3.95858C23.7535 3.84016 23.7756 3.72174 23.8198 3.61725C23.864 3.51275 23.9376 3.42915 24.0481 3.36645C24.1586 3.30376 24.3206 3.27589 24.5342 3.27589C24.7552 3.27589 24.9246 3.31073 25.0424 3.37342C25.1603 3.44309 25.2413 3.52668 25.2781 3.63117C25.3223 3.73566 25.337 3.85409 25.3223 3.98645L25.1824 6.39675C25.1455 7.1073 25.0498 7.75516 24.8951 8.34032C24.7405 8.92548 24.5195 9.44098 24.2396 9.88681C23.9597 10.3326 23.6209 10.7019 23.2232 10.9944C22.8255 11.287 22.3689 11.489 21.8533 11.6005L21.4335 11.6353L21.4261 11.6284ZM24.4311 13.1679C23.4368 13.1679 22.5604 13.0355 21.7944 12.7778C21.0358 12.52 20.3877 12.1508 19.8647 11.6771C19.3344 11.2034 18.9441 10.6531 18.679 10.0122C18.4138 9.37827 18.2812 8.68164 18.2812 7.92929V4.00735C18.2812 3.87499 18.3033 3.74959 18.3401 3.63117C18.3843 3.51274 18.458 3.42217 18.5685 3.35948C18.6789 3.28982 18.8484 3.26196 19.0693 3.26196C19.2829 3.26196 19.4449 3.29678 19.5554 3.35948C19.6659 3.42914 19.7395 3.51971 19.7837 3.63117C19.8279 3.74959 19.8427 3.88195 19.8427 4.02127V7.92929C19.8427 8.71647 20.0268 9.39221 20.3877 9.9495C20.7486 10.5068 21.2789 10.9387 21.9712 11.2452C22.6635 11.5517 23.5031 11.705 24.4827 11.705C25.4622 11.705 26.3534 11.5448 27.0457 11.2313C27.738 10.9178 28.261 10.472 28.6219 9.90074C28.9828 9.32951 29.1595 8.66772 29.1595 7.91537V3.90981C29.1595 3.79835 29.1816 3.69387 29.2184 3.59635C29.2626 3.49882 29.3363 3.41522 29.4541 3.35253C29.572 3.28983 29.734 3.26196 29.9476 3.26196C30.1612 3.26196 30.3232 3.2968 30.4337 3.37342C30.5442 3.44309 30.6252 3.5406 30.662 3.64509C30.7062 3.75655 30.7209 3.88196 30.7209 4.02825V7.96414C30.7209 8.71649 30.581 9.41311 30.3085 10.0401C30.036 10.674 29.6309 11.2173 29.0933 11.6841C28.563 12.1508 27.9001 12.5131 27.1194 12.7708C26.3313 13.0286 25.4401 13.1609 24.4311 13.1609" fill="#174A75"/>
<path d="M40.3738 13.1053C40.1602 13.1053 40.0055 13.0705 39.9024 13.0078C39.7993 12.9381 39.7183 12.8475 39.6741 12.7361C39.6299 12.6177 39.6004 12.4923 39.6004 12.346V4.55082L41.1618 4.61351V12.4574C41.1618 12.5689 41.1397 12.6734 41.1029 12.7848C41.0587 12.8893 40.9851 12.9729 40.8746 13.0217C40.7641 13.0774 40.5947 13.1053 40.3738 13.1053ZM33.3106 4.7598C33.1559 4.7598 33.0233 4.73891 32.8981 4.70408C32.7729 4.66228 32.6772 4.59261 32.6109 4.48115C32.5373 4.36969 32.5078 4.21643 32.5078 4.01441C32.5078 3.80542 32.5446 3.64521 32.6109 3.54769C32.6772 3.45016 32.7803 3.37353 32.8981 3.33174C33.0233 3.28994 33.1559 3.26904 33.2959 3.26904H42.3992C42.5538 3.26904 42.6864 3.28994 42.8042 3.33174C42.9221 3.37353 43.0178 3.45016 43.0841 3.54769C43.1578 3.64521 43.1872 3.80542 43.1872 4.01441C43.1872 4.21643 43.1504 4.36969 43.0841 4.48115C43.0178 4.59261 42.9147 4.66924 42.7969 4.70408C42.6717 4.74587 42.5391 4.7598 42.3844 4.7598H33.318H33.3106Z" fill="#174A75"/>
<path d="M45.9126 13.1052C45.699 13.1052 45.537 13.0703 45.4265 13.0076C45.316 12.9449 45.235 12.8474 45.1908 12.736C45.1466 12.6175 45.1172 12.4921 45.1172 12.3598V4.01429C45.1172 3.88194 45.1393 3.75655 45.1908 3.65206C45.235 3.5406 45.316 3.45004 45.4265 3.38734C45.537 3.32464 45.699 3.28982 45.9126 3.28982L51.1124 3.27588C51.9078 3.27588 52.6075 3.38734 53.2115 3.60329C53.8154 3.81924 54.3236 4.13969 54.7287 4.56463C55.1411 4.98956 55.4431 5.51899 55.6493 6.15292C55.8555 6.78684 55.9586 7.52526 55.9586 8.36121V12.3459C55.9586 12.4922 55.9439 12.6245 55.9071 12.736C55.8702 12.8544 55.7966 12.9449 55.6861 13.0076C55.5757 13.0773 55.4063 13.1052 55.1853 13.1052C54.9717 13.1052 54.8097 13.0773 54.6992 13.0216C54.5888 12.9659 54.5077 12.8823 54.4709 12.7778C54.4267 12.6733 54.412 12.5618 54.412 12.4504V8.3821C54.412 7.78301 54.3457 7.26054 54.1984 6.80774C54.0585 6.3619 53.8522 5.97876 53.5723 5.67225C53.2998 5.35877 52.961 5.12889 52.5633 4.9826C52.1656 4.83631 51.6943 4.75968 51.1566 4.75968H46.6933V12.3389C46.6933 12.4852 46.6712 12.6175 46.6344 12.729C46.5902 12.8474 46.5166 12.938 46.4061 13.0007C46.2956 13.0704 46.1262 13.0982 45.9053 13.0982" fill="#174A75"/>
<path d="M58.6309 13.1052C58.4762 13.1052 58.3437 13.0843 58.2185 13.0425C58.0932 13.0007 57.9975 12.9241 57.9312 12.8196C57.8649 12.7151 57.8281 12.5618 57.8281 12.3598C57.8281 12.1508 57.8649 11.9906 57.9312 11.8861C58.0049 11.7816 58.1006 11.705 58.2185 11.6701C58.3437 11.6353 58.4763 11.6144 58.6162 11.6144H60.2881V4.33475L60.9362 4.80147C60.5753 4.8154 60.2586 4.81542 59.9935 4.81542C59.7283 4.81542 59.5221 4.79452 59.36 4.74575C59.2054 4.70396 59.0875 4.63428 59.0065 4.53675C58.9329 4.43923 58.8887 4.31384 58.8887 4.14665C58.8887 3.83317 58.9624 3.61722 59.117 3.4988C59.2717 3.38037 59.5737 3.31071 60.0303 3.29677L64.8471 3.26195C65.9592 3.24802 66.8872 3.43611 67.6311 3.81229C68.375 4.18846 68.9347 4.75272 69.3103 5.50506C69.686 6.25741 69.8701 7.2048 69.8701 8.34726V12.3319C69.8701 12.4782 69.8554 12.6106 69.8185 12.722C69.7817 12.8404 69.7081 12.931 69.5976 12.9937C69.4871 13.0634 69.3177 13.0912 69.0968 13.0912C68.8758 13.0912 68.7211 13.0634 68.6106 13.0076C68.5002 12.9519 68.4265 12.8683 68.3823 12.7638C68.3381 12.6593 68.3234 12.5479 68.3234 12.4364V8.36816C68.3234 7.56008 68.1982 6.89134 67.9552 6.35494C67.7121 5.82551 67.3438 5.42146 66.8651 5.14978C66.3864 4.8781 65.7825 4.73878 65.0533 4.73878H61.8716V12.0045C61.8716 12.3598 61.7979 12.6315 61.658 12.8126C61.518 12.9937 61.3192 13.0843 61.0614 13.0843H58.6162L58.6309 13.1052Z" fill="#174A75"/>
<path d="M72.7557 13.1052C72.5421 13.1052 72.3801 13.0704 72.2696 13.0077C72.1591 12.945 72.0854 12.8475 72.0413 12.736C71.9971 12.6176 71.9823 12.4922 71.9823 12.3598V8.25672C71.9823 8.11043 72.0044 7.98505 72.0413 7.87359C72.0854 7.76213 72.1591 7.67854 72.2769 7.61584C72.3948 7.55315 72.5568 7.52528 72.7704 7.52528C72.984 7.52528 73.146 7.56012 73.2565 7.62282C73.367 7.68551 73.448 7.77605 73.4848 7.88751C73.5217 7.99897 73.5437 8.12438 73.5437 8.27067V12.3737C73.5437 12.5061 73.5217 12.6315 73.4701 12.736C73.4259 12.8475 73.3449 12.938 73.2418 13.0007C73.1387 13.0704 72.9693 13.0982 72.7483 13.0982M81.719 13.1052C81.5055 13.1052 81.3434 13.0773 81.2256 13.0216C81.1077 12.9659 81.0267 12.8823 80.9899 12.7778C80.9457 12.6733 80.931 12.5618 80.931 12.4504V8.38213C80.931 7.58102 80.8058 6.91923 80.5627 6.37586C80.3197 5.83947 79.9514 5.43544 79.4726 5.16375C78.9939 4.89207 78.3973 4.75273 77.6829 4.75273H72.6231C72.4684 4.75273 72.3358 4.73184 72.2106 4.69701C72.0854 4.65521 71.9897 4.58555 71.9234 4.47409C71.8571 4.36263 71.8203 4.20938 71.8203 4.00736C71.8203 3.79838 71.8571 3.64511 71.9234 3.54062C71.997 3.44309 72.0928 3.36647 72.2106 3.32467C72.3358 3.28287 72.4684 3.255 72.6084 3.255H77.6314C78.6993 3.255 79.5905 3.45006 80.3123 3.84016C81.0341 4.23027 81.5717 4.79454 81.94 5.54689C82.3009 6.29227 82.485 7.22573 82.485 8.34728V12.3319C82.485 12.4782 82.4703 12.6106 82.4334 12.722C82.3966 12.8405 82.323 12.931 82.2125 12.9937C82.102 13.0634 81.94 13.0913 81.7264 13.0913" fill="#174A75"/>
<path d="M89.42 13.1052C89.2653 13.1052 89.1327 13.0843 89.0075 13.0425C88.8823 13.0007 88.7866 12.9241 88.7203 12.8196C88.654 12.7151 88.6172 12.5618 88.6172 12.3598C88.6172 12.1508 88.654 11.9906 88.7203 11.8861C88.794 11.7816 88.8897 11.705 89.0075 11.6701C89.1327 11.6353 89.2653 11.6144 89.4053 11.6144H91.0771V4.33475L91.7253 4.80147C91.3644 4.8154 91.0477 4.81542 90.7825 4.81542C90.5174 4.81542 90.3112 4.79452 90.1491 4.74575C89.9945 4.70396 89.8766 4.63428 89.7956 4.53675C89.7219 4.43923 89.6778 4.31384 89.6778 4.14665C89.6778 3.83317 89.7514 3.61722 89.9061 3.4988C90.0608 3.38037 90.3627 3.31071 90.8194 3.29677L95.6361 3.26195C96.7483 3.24802 97.6763 3.43611 98.4202 3.81229C99.1641 4.18846 99.7238 4.75272 100.099 5.50506C100.475 6.25741 100.659 7.2048 100.659 8.34726V12.3319C100.659 12.4782 100.644 12.6106 100.608 12.722C100.571 12.8404 100.497 12.931 100.387 12.9937C100.276 13.0634 100.107 13.0912 99.8858 13.0912C99.6649 13.0912 99.5102 13.0634 99.3997 13.0076C99.2893 12.9519 99.2156 12.8683 99.1714 12.7638C99.1272 12.6593 99.1125 12.5479 99.1125 12.4364V8.36816C99.1125 7.56008 98.9873 6.89134 98.7442 6.35494C98.5012 5.82551 98.1329 5.42146 97.6542 5.14978C97.1755 4.8781 96.5715 4.73878 95.8424 4.73878H92.6606V12.0045C92.6606 12.3598 92.587 12.6315 92.4471 12.8126C92.3071 12.9937 92.1083 13.0843 91.8505 13.0843H89.4053L89.42 13.1052Z" fill="#174A75"/>
<path d="M105.58 12.9867C105.322 12.8126 105.167 12.6384 105.123 12.4713C105.079 12.3041 105.138 12.1369 105.3 11.9697C105.948 11.3149 106.537 10.66 107.082 10.0052C107.627 9.35039 108.121 8.69557 108.57 8.04075C109.012 7.38593 109.41 6.73808 109.749 6.09022C110.087 5.44237 110.367 4.80844 110.596 4.18845L111.7 5.10102C111.42 5.90909 111.03 6.73111 110.529 7.56705C110.028 8.40299 109.454 9.25286 108.806 10.1097C108.158 10.9665 107.436 11.8443 106.655 12.7429C106.552 12.8683 106.442 12.9658 106.339 13.0355C106.235 13.1052 106.118 13.14 105.992 13.14C105.867 13.14 105.735 13.0843 105.58 12.9728M111.678 5.12889L110.603 4.75968H103.577C103.282 4.75968 103.068 4.69698 102.928 4.57855C102.789 4.45316 102.708 4.25812 102.685 3.97947L102.56 1.38805C102.545 1.24176 102.56 1.11636 102.604 1.01187C102.641 0.907376 102.73 0.823792 102.862 0.761096C102.987 0.6984 103.164 0.670532 103.385 0.670532C103.599 0.670532 103.746 0.705352 103.842 0.768048C103.937 0.830743 104.004 0.92828 104.041 1.03974C104.077 1.15816 104.099 1.29051 104.099 1.44377L104.203 3.25498H110.426C110.802 3.25498 111.096 3.33162 111.325 3.48488C111.546 3.63813 111.693 3.86105 111.752 4.1397C111.818 4.42531 111.789 4.74575 111.671 5.11496" fill="#174A75"/>
<path d="M114.435 13.1052C114.222 13.1052 114.06 13.0704 113.949 13.0077C113.839 12.945 113.765 12.8475 113.721 12.736C113.677 12.6176 113.662 12.4922 113.662 12.3598V8.25672C113.662 8.11043 113.684 7.98505 113.721 7.87359C113.765 7.76213 113.839 7.67854 113.957 7.61584C114.074 7.55315 114.236 7.52528 114.45 7.52528C114.664 7.52528 114.826 7.56012 114.936 7.62282C115.047 7.68551 115.128 7.77605 115.165 7.88751C115.201 7.99897 115.223 8.12438 115.223 8.27067V12.3737C115.223 12.5061 115.201 12.6315 115.15 12.736C115.106 12.8475 115.025 12.938 114.921 13.0007C114.818 13.0704 114.649 13.0982 114.428 13.0982M123.399 13.1052C123.185 13.1052 123.023 13.0773 122.905 13.0216C122.787 12.9659 122.706 12.8823 122.67 12.7778C122.625 12.6733 122.611 12.5618 122.611 12.4504V8.38213C122.611 7.58102 122.485 6.91923 122.242 6.37586C121.999 5.83947 121.631 5.43544 121.152 5.16375C120.674 4.89207 120.077 4.75273 119.363 4.75273H114.303C114.148 4.75273 114.016 4.73184 113.89 4.69701C113.765 4.65521 113.669 4.58555 113.603 4.47409C113.537 4.36263 113.5 4.20938 113.5 4.00736C113.5 3.79838 113.537 3.64511 113.603 3.54062C113.677 3.44309 113.773 3.36647 113.89 3.32467C114.016 3.28287 114.148 3.255 114.288 3.255H119.311C120.379 3.255 121.27 3.45006 121.992 3.84016C122.714 4.23027 123.251 4.79454 123.62 5.54689C123.981 6.29227 124.165 7.22573 124.165 8.34728V12.3319C124.165 12.4782 124.15 12.6106 124.113 12.722C124.076 12.8405 124.003 12.931 123.892 12.9937C123.782 13.0634 123.62 13.0913 123.406 13.0913" fill="#174A75"/>
<path d="M132.058 13.1052C131.86 13.1052 131.705 13.0773 131.587 13.0216C131.469 12.9659 131.388 12.8823 131.351 12.7778C131.307 12.6733 131.292 12.5618 131.292 12.4504V7.89449C131.292 7.19787 131.204 6.6127 131.02 6.14597C130.836 5.67923 130.571 5.33092 130.217 5.10104C129.864 4.87116 129.429 4.75273 128.899 4.75273H127.477C127.323 4.75273 127.19 4.73184 127.072 4.69701C126.954 4.65521 126.859 4.58555 126.792 4.47409C126.726 4.36263 126.689 4.20938 126.689 4.00736C126.689 3.79838 126.726 3.64511 126.792 3.54062C126.866 3.44309 126.954 3.36647 127.072 3.32467C127.19 3.28287 127.315 3.255 127.463 3.255H128.847C129.738 3.255 130.475 3.42917 131.064 3.77052C131.653 4.11186 132.095 4.62734 132.39 5.30307C132.692 5.97879 132.839 6.82866 132.839 7.84572V12.3319C132.839 12.4782 132.824 12.6106 132.788 12.722C132.751 12.8405 132.677 12.931 132.567 12.9937C132.456 13.0634 132.287 13.0913 132.066 13.0913M126.733 13.1052C126.579 13.1052 126.446 13.0843 126.328 13.0425C126.21 13.0007 126.115 12.9241 126.048 12.8196C125.982 12.7151 125.945 12.5618 125.945 12.3598C125.945 12.1508 125.982 11.9906 126.048 11.8861C126.122 11.7816 126.21 11.705 126.328 11.6702C126.446 11.6353 126.571 11.6144 126.719 11.6144H132.132L132.117 13.1122H126.741L126.733 13.1052Z" fill="#174A75"/>
<path d="M135.881 8.28455L134.739 4.24418C134.703 4.09092 134.68 3.94462 134.68 3.81923C134.68 3.69384 134.717 3.58239 134.813 3.48486C134.909 3.38734 135.063 3.32463 135.284 3.27587C135.557 3.22014 135.756 3.22014 135.881 3.27587C136.006 3.3316 136.095 3.41519 136.146 3.53361C136.19 3.65204 136.227 3.75655 136.249 3.85407L137.074 6.98188L135.881 8.27758V8.28455ZM145.898 7.83873V12.3598C145.898 12.5618 145.875 12.7151 145.839 12.8265C145.794 12.938 145.721 13.0146 145.61 13.0494C145.5 13.0843 145.338 13.1052 145.124 13.1052H139.188C139.033 13.1052 138.901 13.0843 138.783 13.0355C138.665 12.9867 138.569 12.9171 138.503 12.8126C138.437 12.7081 138.4 12.5548 138.4 12.3528C138.4 12.1438 138.437 11.9836 138.503 11.8791C138.577 11.7746 138.665 11.705 138.783 11.6632C138.901 11.6214 139.041 11.6074 139.203 11.6074H144.351V7.88748C144.351 7.17693 144.226 6.58481 143.968 6.11111C143.71 5.63741 143.334 5.27518 142.834 5.03136C142.333 4.78754 141.714 4.66215 140.978 4.66215C140.425 4.66215 139.939 4.74574 139.519 4.91292C139.1 5.08011 138.731 5.31 138.422 5.60954C138.113 5.90909 137.855 6.25739 137.656 6.6684C137.457 7.07243 137.302 7.51132 137.199 7.99199L136.249 12.311C136.227 12.4573 136.19 12.5897 136.146 12.7081C136.102 12.8265 136.021 12.931 135.91 13.0007C135.8 13.0703 135.645 13.1121 135.446 13.1121C135.13 13.1121 134.909 13.0494 134.791 12.9171C134.673 12.7847 134.629 12.6036 134.673 12.3598L135.918 6.59178L136.478 6.92616C136.595 6.51516 136.743 6.12503 136.927 5.75583C137.111 5.38662 137.324 5.03832 137.568 4.72484C137.811 4.41137 138.113 4.13968 138.451 3.90979C138.798 3.67991 139.203 3.50575 139.659 3.38036C140.116 3.25496 140.646 3.1853 141.257 3.1853C142.267 3.1853 143.114 3.36642 143.798 3.72866C144.483 4.09091 145.006 4.61338 145.36 5.31C145.721 5.99965 145.898 6.84952 145.898 7.84568" fill="#174A75"/>
<path d="M91.6309 30.5763C91.4762 30.5763 91.3437 30.5554 91.2185 30.5136C91.0932 30.4718 90.9975 30.3952 90.9312 30.2907C90.8649 30.1862 90.8281 30.0329 90.8281 29.8309C90.8281 29.6219 90.8649 29.4617 90.9312 29.3572C91.0049 29.2527 91.1006 29.1761 91.2185 29.1413C91.3437 29.1064 91.4763 29.0856 91.6162 29.0856H93.2881V21.8059L93.9362 22.2726C93.5753 22.2866 93.2586 22.2865 92.9935 22.2865C92.7283 22.2865 92.5221 22.2656 92.36 22.2169C92.2054 22.1751 92.0875 22.1054 92.0065 22.0079C91.9329 21.9104 91.8887 21.785 91.8887 21.6178C91.8887 21.3043 91.9624 21.0884 92.117 20.9699C92.2717 20.8515 92.5737 20.7819 93.0303 20.7679L97.8471 20.7331C98.9592 20.7191 99.8872 20.9072 100.631 21.2834C101.375 21.6596 101.935 22.2238 102.31 22.9762C102.686 23.7285 102.87 24.676 102.87 25.8184V29.8031C102.87 29.9494 102.855 30.0817 102.819 30.1932C102.782 30.3116 102.708 30.4021 102.598 30.4648C102.487 30.5345 102.318 30.5624 102.097 30.5624C101.876 30.5624 101.721 30.5345 101.611 30.4788C101.5 30.4231 101.427 30.3395 101.382 30.235C101.338 30.1305 101.323 30.019 101.323 29.9076V25.8393C101.323 25.0312 101.198 24.3625 100.955 23.8261C100.712 23.2966 100.344 22.8926 99.8651 22.6209C99.3864 22.3493 98.7825 22.2099 98.0533 22.2099H94.8716V29.4757C94.8716 29.8309 94.7979 30.1026 94.658 30.2837C94.5181 30.4649 94.3192 30.5554 94.0614 30.5554H91.6162L91.6309 30.5763Z" fill="#174A75"/>
<path d="M105.814 25.8742C105.6 25.8742 105.445 25.8394 105.342 25.7628C105.239 25.6931 105.166 25.6026 105.121 25.4911C105.085 25.3797 105.062 25.2612 105.062 25.1289V21.4716C105.062 21.3393 105.085 21.2208 105.121 21.1024C105.166 20.9909 105.239 20.9004 105.35 20.8377C105.46 20.768 105.622 20.7402 105.836 20.7402C106.057 20.7402 106.226 20.775 106.337 20.8447C106.447 20.9143 106.521 21.0049 106.558 21.1094C106.594 21.2139 106.609 21.3393 106.609 21.4856V25.1428C106.609 25.2752 106.587 25.4005 106.55 25.505C106.506 25.6165 106.432 25.7071 106.322 25.7698C106.211 25.8394 106.042 25.8673 105.821 25.8673" fill="#174A75"/>
<path d="M114.613 30.5764C114.414 30.5764 114.26 30.5486 114.142 30.4928C114.024 30.4371 113.943 30.3535 113.906 30.249C113.862 30.1445 113.847 30.0331 113.847 29.9216V25.3657C113.847 24.6691 113.759 24.084 113.575 23.6172C113.39 23.1505 113.125 22.8022 112.772 22.5723C112.418 22.3424 111.984 22.224 111.453 22.224H110.032C109.877 22.224 109.745 22.2031 109.627 22.1682C109.509 22.1264 109.413 22.0568 109.347 21.9453C109.281 21.8339 109.244 21.6806 109.244 21.4786C109.244 21.2696 109.281 21.1164 109.347 21.0119C109.421 20.9143 109.509 20.8377 109.627 20.7959C109.745 20.7541 109.87 20.7263 110.017 20.7263H111.402C112.293 20.7263 113.03 20.9004 113.619 21.2417C114.201 21.5831 114.65 22.0986 114.944 22.7743C115.246 23.45 115.394 24.2999 115.394 25.317V29.8032C115.394 29.9495 115.379 30.0818 115.342 30.1933C115.305 30.3117 115.232 30.4023 115.121 30.465C115.011 30.5346 114.841 30.5625 114.62 30.5625M109.288 30.5764C109.133 30.5764 109.001 30.5555 108.883 30.5137C108.765 30.4719 108.669 30.3953 108.603 30.2908C108.537 30.1863 108.5 30.0331 108.5 29.831C108.5 29.6221 108.537 29.4618 108.603 29.3573C108.677 29.2529 108.765 29.1762 108.883 29.1414C109.001 29.1066 109.126 29.0857 109.273 29.0857H114.687L114.672 30.5834H109.295L109.288 30.5764Z" fill="#174A75"/>
<path d="M118.165 30.5762C117.952 30.5762 117.797 30.5414 117.694 30.4787C117.591 30.416 117.517 30.3185 117.473 30.207C117.429 30.0886 117.414 29.9632 117.414 29.8308V21.4714C117.414 21.3391 117.436 21.2137 117.473 21.1092C117.51 20.9977 117.591 20.9072 117.701 20.8445C117.812 20.7748 117.974 20.7469 118.187 20.7469C118.408 20.7469 118.578 20.7818 118.688 20.8584C118.799 20.9281 118.872 21.0186 118.909 21.1231C118.946 21.2276 118.961 21.353 118.961 21.4993V29.8587C118.961 29.9911 118.939 30.1165 118.902 30.2279C118.865 30.3394 118.784 30.4299 118.674 30.4926C118.563 30.5623 118.394 30.5902 118.173 30.5902" fill="#174A75"/>
<path d="M129.368 30.5763C129.155 30.5763 128.993 30.5485 128.882 30.4927C128.772 30.437 128.691 30.3534 128.647 30.2489C128.602 30.1444 128.58 30.033 128.58 29.9215V25.8532C128.58 25.2542 128.514 24.7317 128.374 24.2719C128.241 23.8191 128.035 23.436 127.755 23.1364C127.483 22.8299 127.144 22.607 126.746 22.4537C126.349 22.3075 125.877 22.2308 125.325 22.2308H121.443C121.289 22.2308 121.156 22.2099 121.031 22.1751C120.906 22.1333 120.81 22.0636 120.744 21.9522C120.677 21.8407 120.641 21.6875 120.641 21.4855C120.641 21.2765 120.677 21.1232 120.744 21.0187C120.817 20.9212 120.906 20.8446 121.024 20.8028C121.141 20.761 121.274 20.7331 121.429 20.7331H125.273C126.083 20.7331 126.791 20.8446 127.402 21.0605C128.013 21.2765 128.521 21.5969 128.926 22.0218C129.331 22.4468 129.633 22.9762 129.84 23.6101C130.046 24.2441 130.149 24.9825 130.149 25.8184V29.8031C130.149 29.9494 130.127 30.0817 130.09 30.1932C130.046 30.3116 129.972 30.4022 129.862 30.4649C129.751 30.5345 129.589 30.5624 129.376 30.5624" fill="#174A75"/>
<path d="M133.102 25.8742C132.889 25.8742 132.734 25.8394 132.624 25.7628C132.521 25.6931 132.447 25.6026 132.403 25.4911C132.358 25.3797 132.344 25.2612 132.344 25.1289V21.4716C132.344 21.3393 132.366 21.2208 132.403 21.1024C132.44 20.9909 132.521 20.9004 132.631 20.8377C132.741 20.768 132.903 20.7402 133.117 20.7402C133.338 20.7402 133.507 20.775 133.618 20.8447C133.728 20.9143 133.802 21.0049 133.839 21.1094C133.876 21.2139 133.89 21.3393 133.89 21.4856V25.1428C133.89 25.2752 133.868 25.4005 133.831 25.505C133.795 25.6165 133.714 25.7071 133.603 25.7698C133.493 25.8394 133.323 25.8673 133.102 25.8673" fill="#174A75"/>
<path d="M139.658 29.1134C139.496 29.0368 139.334 28.9184 139.172 28.7651C139.017 28.6118 138.884 28.4029 138.774 28.1312L136.439 21.8129C136.395 21.6666 136.358 21.5342 136.343 21.4158C136.329 21.2974 136.358 21.1859 136.439 21.0953C136.52 20.9978 136.675 20.9212 136.896 20.8515C137.131 20.7819 137.308 20.7749 137.441 20.8167C137.566 20.8585 137.676 20.9351 137.757 21.0466C137.838 21.158 137.905 21.2904 137.949 21.4437L140.623 28.8417L139.658 29.1065V29.1134ZM137.124 31.0291C136.947 31.0709 136.793 31.0918 136.645 31.0849C136.505 31.0849 136.388 31.0291 136.284 30.9386C136.189 30.841 136.108 30.6948 136.049 30.4788C136.005 30.2907 136.005 30.1374 136.049 30.026C136.093 29.9145 136.189 29.824 136.321 29.7613C136.454 29.6986 136.609 29.6359 136.771 29.5802L142.096 28.1521C142.611 27.9849 143.038 27.769 143.37 27.4973C143.701 27.2256 143.952 26.8842 144.106 26.4732C144.261 26.0622 144.342 25.5955 144.342 25.073V21.381C144.342 21.2625 144.357 21.1511 144.393 21.0536C144.43 20.956 144.504 20.8794 144.614 20.8237C144.725 20.761 144.887 20.7331 145.101 20.7331C145.321 20.7331 145.491 20.7679 145.609 20.8306C145.727 20.9003 145.808 20.9908 145.852 21.1023C145.896 21.2207 145.925 21.3461 145.925 21.4924L145.911 24.7178C145.896 25.3586 145.815 25.9438 145.653 26.4663C145.498 26.9887 145.263 27.4485 144.961 27.8456C144.659 28.2427 144.268 28.591 143.79 28.8835C143.311 29.1761 142.758 29.4199 142.125 29.608L137.117 31.0222L137.124 31.0291Z" fill="#174A75"/>
</svg>
