<svg width="146" height="32" viewBox="0 0 146 32" fill="none" xmlns="http://www.w3.org/2000/svg">
<path d="M26.8806 30.5764L26.8953 29.0786H36.1018L36.1165 30.5764H26.8732H26.8806ZM26.91 30.5764C26.6965 30.5764 26.5344 30.5415 26.424 30.4788C26.3135 30.4162 26.2325 30.3186 26.1957 30.2072C26.1515 30.0887 26.1367 29.9633 26.1367 29.831V21.6039C26.1367 21.3183 26.2177 21.1024 26.3798 20.9561C26.5418 20.8098 26.7848 20.7401 27.1015 20.7401H32.3381C33.3103 20.7401 34.1353 20.9212 34.8055 21.2835C35.4831 21.6457 35.9913 22.1612 36.3374 22.8369C36.6836 23.5127 36.853 24.3416 36.853 25.3308V29.817C36.853 29.9633 36.8382 30.0957 36.8014 30.2072C36.7646 30.3256 36.6909 30.4162 36.5805 30.4788C36.47 30.5485 36.3006 30.5764 36.0796 30.5764C35.8661 30.5764 35.704 30.5485 35.5936 30.4928C35.4831 30.437 35.4021 30.3534 35.3652 30.249C35.3284 30.1445 35.3063 30.033 35.3063 29.9215V25.3657C35.3063 24.6691 35.1958 24.0839 34.9822 23.6171C34.7687 23.1504 34.4446 22.8021 34.0174 22.5722C33.5902 22.3423 33.0452 22.2239 32.3897 22.2239H27.6981V29.8031C27.6981 29.9494 27.6761 30.0818 27.6392 30.1932C27.595 30.3117 27.5213 30.4022 27.4109 30.4649C27.3004 30.5346 27.131 30.5624 26.91 30.5624" fill="#BDAB73"/>
<path d="M39.6067 25.8742C39.3931 25.8742 39.2385 25.8394 39.1353 25.7627C39.0322 25.6931 38.9585 25.6025 38.9144 25.4911C38.8702 25.3796 38.8555 25.2612 38.8555 25.1288V21.4716C38.8555 21.3392 38.8775 21.2208 38.9144 21.1023C38.9512 20.9909 39.0322 20.9003 39.1427 20.8376C39.2532 20.768 39.4152 20.7401 39.6288 20.7401C39.8498 20.7401 40.0191 20.7749 40.1296 20.8446C40.2401 20.9143 40.3137 21.0048 40.3506 21.1093C40.3874 21.2138 40.4021 21.3392 40.4021 21.4855V25.1427C40.4021 25.2751 40.38 25.4005 40.3432 25.505C40.3064 25.6164 40.2254 25.707 40.1149 25.7697C40.0044 25.8394 39.835 25.8672 39.6141 25.8672" fill="#BDAB73"/>
<path d="M45.4197 30.4578C45.162 30.2837 45.0073 30.1095 44.9631 29.9423C44.9189 29.7751 44.9778 29.6079 45.1399 29.4408C45.788 28.7859 46.3772 28.1311 46.9223 27.4763C47.4673 26.8215 47.9607 26.1667 48.41 25.5118C48.8519 24.857 49.2496 24.2091 49.5884 23.5613C49.9272 22.9134 50.2071 22.2795 50.4354 21.6595L51.5402 22.5721C51.2603 23.3802 50.87 24.2022 50.3691 25.0381C49.8683 25.8741 49.2938 26.724 48.6457 27.5808C47.9975 28.4376 47.2758 29.3154 46.4951 30.214C46.392 30.3394 46.2815 30.4369 46.1784 30.5066C46.0753 30.5762 45.9574 30.6111 45.8322 30.6111C45.707 30.6111 45.5744 30.5553 45.4197 30.4439M51.5181 22.6L50.4428 22.2308H43.4164C43.1218 22.2308 42.9082 22.1681 42.7683 22.0496C42.6284 21.9243 42.5473 21.7292 42.5252 21.4505L42.4001 18.8591C42.3853 18.7128 42.4001 18.5875 42.4442 18.483C42.4811 18.3785 42.5694 18.2949 42.6946 18.2322C42.8272 18.1695 42.9966 18.1416 43.2249 18.1416C43.4385 18.1416 43.5858 18.1764 43.6816 18.2391C43.7773 18.3018 43.8436 18.3993 43.8805 18.5108C43.9173 18.6292 43.9393 18.7616 43.9393 18.9149L44.0425 20.7261H50.266C50.6416 20.7261 50.9362 20.8027 51.1645 20.9559C51.3855 21.1092 51.5328 21.3321 51.5917 21.6108C51.658 21.8964 51.6286 22.2168 51.5107 22.586" fill="#BDAB73"/>
<path d="M56.5395 29.0995L56.0975 28.3541L56.5173 28.2915C56.8561 28.173 57.1581 27.978 57.4232 27.7202C57.6884 27.4625 57.9167 27.1351 58.1082 26.7589C58.2997 26.3758 58.4544 25.9508 58.5649 25.4841C58.6753 25.0173 58.7343 24.5228 58.749 24.0073L58.8521 21.4298C58.8668 21.3113 58.8889 21.1929 58.9331 21.0884C58.9699 20.9839 59.051 20.9003 59.1614 20.8376C59.2719 20.775 59.4339 20.7471 59.6475 20.7471C59.8685 20.7471 60.0379 20.7819 60.1557 20.8446C60.2736 20.9143 60.3546 20.9979 60.3914 21.1023C60.4356 21.2068 60.4503 21.3253 60.4356 21.4576L60.2957 23.8679C60.2588 24.5785 60.1631 25.2263 60.0084 25.8115C59.8537 26.3967 59.6328 26.9122 59.3529 27.358C59.0731 27.8038 58.7343 28.173 58.3365 28.4656C57.9388 28.7582 57.4822 28.9602 56.9666 29.0717L56.5468 29.1065L56.5395 29.0995ZM59.5444 30.646C58.5501 30.646 57.6737 30.5137 56.9077 30.2559C56.1491 29.9982 55.501 29.629 54.9781 29.1553C54.4478 28.6816 54.0574 28.1312 53.7922 27.4903C53.5271 26.8564 53.3945 26.1598 53.3945 25.4075V21.4855C53.3945 21.3531 53.4166 21.2277 53.4535 21.1093C53.4977 20.9909 53.5713 20.9003 53.6818 20.8376C53.7923 20.768 53.9617 20.7401 54.1826 20.7401C54.3962 20.7401 54.5582 20.775 54.6687 20.8376C54.7792 20.9073 54.8528 20.9979 54.897 21.1093C54.9412 21.2277 54.9559 21.3601 54.9559 21.4994V25.4075C54.9559 26.1946 55.1401 26.8704 55.5009 27.4277C55.8618 27.9849 56.3921 28.4168 57.0845 28.7234C57.7768 29.0299 58.6164 29.1831 59.596 29.1831C60.5755 29.1831 61.4667 29.0229 62.1591 28.7094C62.8514 28.396 63.3743 27.9501 63.7352 27.3789C64.096 26.8077 64.2728 26.1459 64.2728 25.3935V21.388C64.2728 21.2765 64.2949 21.172 64.3317 21.0745C64.3759 20.977 64.4496 20.8934 64.5674 20.8307C64.6853 20.768 64.8473 20.7401 65.0609 20.7401C65.2745 20.7401 65.4365 20.7749 65.547 20.8516C65.6575 20.9212 65.7311 21.0188 65.7753 21.1232C65.8195 21.2347 65.8342 21.3601 65.8342 21.5064V25.4423C65.8342 26.1946 65.6943 26.8913 65.4218 27.5182C65.1419 28.1521 64.7442 28.6955 64.2065 29.1622C63.6762 29.629 63.0134 29.9912 62.2327 30.249C61.4446 30.5067 60.5534 30.6391 59.5444 30.6391" fill="#BDAB73"/>
<path d="M68.6849 30.5762C68.4713 30.5762 68.3166 30.5413 68.2135 30.4786C68.1104 30.416 68.0367 30.3184 67.9925 30.207C67.9483 30.0885 67.9336 29.9631 67.9336 29.8308V21.4714C67.9336 21.339 67.9557 21.2136 67.9925 21.1091C68.0294 20.9977 68.1104 20.9071 68.2208 20.8444C68.3313 20.7747 68.4933 20.7469 68.7069 20.7469C68.9279 20.7469 69.0973 20.7817 69.2077 20.8583C69.3182 20.928 69.3919 21.0186 69.4287 21.123C69.4656 21.2275 69.4803 21.3529 69.4803 21.4992V29.8586C69.4803 29.991 69.4582 30.1164 69.4214 30.2279C69.3845 30.3393 69.3035 30.4299 69.193 30.4926C69.0826 30.5622 68.9132 30.5901 68.6922 30.5901" fill="#BDAB73"/>
<path d="M79.8731 30.5763C79.6595 30.5763 79.4975 30.5484 79.387 30.4927C79.2765 30.4369 79.1955 30.3533 79.1513 30.2488C79.1071 30.1444 79.085 30.0329 79.085 29.9214V25.8532C79.085 25.2541 79.0187 24.7316 78.8862 24.2719C78.7536 23.8191 78.5474 23.4359 78.2749 23.1364C78.0023 22.8299 77.6635 22.6069 77.2658 22.4537C76.8681 22.3074 76.3968 22.2308 75.8444 22.2308H71.9629C71.8083 22.2308 71.6757 22.2099 71.5505 22.175C71.4253 22.1332 71.3296 22.0636 71.2633 21.9521C71.1896 21.8407 71.1602 21.6874 71.1602 21.4854C71.1602 21.2764 71.197 21.1231 71.2633 21.0186C71.3369 20.9211 71.4253 20.8445 71.5432 20.8027C71.661 20.7609 71.7936 20.733 71.9482 20.733H75.7928C76.603 20.733 77.31 20.8445 77.9213 21.0604C78.5326 21.2764 79.0408 21.5968 79.4386 22.0218C79.8436 22.4467 80.1456 22.9761 80.3518 23.6101C80.558 24.244 80.6612 24.9824 80.6612 25.8184V29.803C80.6612 29.9493 80.6391 30.0817 80.6023 30.1931C80.5581 30.3115 80.4844 30.4021 80.3739 30.4648C80.2635 30.5345 80.1014 30.5623 79.8878 30.5623" fill="#BDAB73"/>
<path d="M83.6145 25.8742C83.4009 25.8742 83.2463 25.8394 83.1432 25.7627C83.04 25.6931 82.9664 25.6025 82.9222 25.4911C82.878 25.3796 82.8633 25.2612 82.8633 25.1288V21.4716C82.8633 21.3392 82.8853 21.2208 82.9222 21.1023C82.959 20.9909 83.04 20.9003 83.1505 20.8376C83.261 20.768 83.423 20.7401 83.6366 20.7401C83.8576 20.7401 84.027 20.7749 84.1374 20.8446C84.2479 20.9143 84.3216 21.0048 84.3584 21.1093C84.3952 21.2138 84.4099 21.3392 84.4099 21.4855V25.1427C84.4099 25.2751 84.3878 25.4005 84.351 25.505C84.3142 25.6164 84.2332 25.707 84.1227 25.7697C84.0122 25.8394 83.8428 25.8672 83.6219 25.8672" fill="#BDAB73"/>
<path d="M1.2203 13.1052C1.06563 13.1052 0.933064 13.0843 0.807857 13.0425C0.68265 13.0007 0.58693 12.9241 0.513279 12.8196C0.446993 12.7151 0.410156 12.5618 0.410156 12.3598C0.410156 12.1508 0.446993 11.9906 0.513279 11.8861C0.58693 11.7816 0.68265 11.705 0.807857 11.6701C0.933064 11.6353 1.0583 11.6144 1.2056 11.6144H2.87746V4.33475L3.52559 4.80147C3.1647 4.8154 2.84802 4.81542 2.58288 4.81542C2.31773 4.81542 2.11152 4.79452 1.94949 4.74575C1.79482 4.70396 1.67695 4.63428 1.59593 4.53675C1.52228 4.43923 1.47811 4.31384 1.47811 4.14665C1.47811 3.83317 1.55176 3.61722 1.70643 3.4988C1.86109 3.38037 2.16306 3.31071 2.61969 3.29677L7.43647 3.26195C8.54861 3.24802 9.47663 3.43611 10.2205 3.81229C10.9644 4.18846 11.5241 4.75272 11.8997 5.50506C12.2754 6.25741 12.4595 7.2048 12.4595 8.34726V12.3319C12.4595 12.4782 12.4448 12.6106 12.4079 12.722C12.3711 12.8404 12.2975 12.931 12.187 12.9937C12.0765 13.0634 11.9071 13.0912 11.6862 13.0912C11.4652 13.0912 11.3106 13.0634 11.2001 13.0076C11.0896 12.9519 11.0086 12.8683 10.9718 12.7638C10.9276 12.6593 10.9128 12.5479 10.9128 12.4364V8.36816C10.9128 7.56008 10.7876 6.89134 10.5446 6.35494C10.3015 5.82551 9.93329 5.42146 9.45456 5.14978C8.97582 4.8781 8.37187 4.73878 7.64272 4.73878H4.46098V12.0045C4.46098 12.3598 4.38734 12.6315 4.2474 12.8126C4.10747 12.9937 3.90861 13.0843 3.65083 13.0843H1.2056L1.2203 13.1052Z" fill="#EBE8E3"/>
<path d="M15.4036 13.1052C15.19 13.1052 15.0353 13.0703 14.9322 13.0076C14.8291 12.9449 14.7554 12.8474 14.7112 12.736C14.667 12.6175 14.6523 12.4921 14.6523 12.3598V4.00037C14.6523 3.86801 14.6744 3.74263 14.7112 3.63813C14.7481 3.52668 14.8291 3.43611 14.9396 3.37342C15.0501 3.30375 15.2121 3.27588 15.4257 3.27588C15.6466 3.27588 15.816 3.31071 15.9265 3.38734C16.037 3.457 16.1106 3.54757 16.1474 3.65206C16.1843 3.75655 16.199 3.88195 16.199 4.02824V12.3877C16.199 12.52 16.1769 12.6454 16.1401 12.7499C16.1032 12.8614 16.0222 12.9519 15.9118 13.0146C15.8013 13.0843 15.6319 13.1121 15.4109 13.1121" fill="#EBE8E3"/>
<path d="M21.43 11.6284L20.9881 10.883L21.408 10.8203C21.7468 10.7019 22.0487 10.5068 22.3139 10.249C22.579 9.9913 22.8073 9.66388 22.9988 9.28771C23.1903 8.90457 23.345 8.47964 23.4554 8.01291C23.5659 7.54617 23.6248 7.05155 23.6396 6.53606L23.7427 3.95858C23.7574 3.84016 23.7795 3.72174 23.8237 3.61725C23.8679 3.51275 23.9415 3.42915 24.052 3.36645C24.1625 3.30376 24.3246 3.27589 24.5381 3.27589C24.7591 3.27589 24.9285 3.31073 25.0463 3.37342C25.1642 3.44309 25.2452 3.52668 25.282 3.63117C25.3262 3.73566 25.3409 3.85409 25.3262 3.98645L25.1863 6.39675C25.1495 7.1073 25.0537 7.75516 24.899 8.34032C24.7444 8.92548 24.5234 9.44098 24.2435 9.88681C23.9636 10.3326 23.6248 10.7019 23.2271 10.9944C22.8294 11.287 22.3728 11.489 21.8572 11.6005L21.4374 11.6353L21.43 11.6284ZM24.435 13.1679C23.4407 13.1679 22.5643 13.0355 21.7983 12.7778C21.0397 12.52 20.3916 12.1508 19.8686 11.6771C19.3383 11.2034 18.948 10.6531 18.6829 10.0122C18.4177 9.37827 18.2852 8.68164 18.2852 7.92929V4.00735C18.2852 3.87499 18.3072 3.74959 18.344 3.63117C18.3882 3.51274 18.4619 3.42217 18.5724 3.35948C18.6828 3.28982 18.8523 3.26196 19.0732 3.26196C19.2868 3.26196 19.4488 3.29678 19.5593 3.35948C19.6698 3.42914 19.7434 3.51971 19.7876 3.63117C19.8318 3.74959 19.8466 3.88195 19.8466 4.02127V7.92929C19.8466 8.71647 20.0307 9.39221 20.3916 9.9495C20.7525 10.5068 21.2828 10.9387 21.9751 11.2452C22.6674 11.5517 23.507 11.705 24.4866 11.705C25.4661 11.705 26.3573 11.5448 27.0496 11.2313C27.742 10.9178 28.2649 10.472 28.6258 9.90074C28.9867 9.32951 29.1634 8.66772 29.1634 7.91537V3.90981C29.1634 3.79835 29.1855 3.69387 29.2224 3.59635C29.2665 3.49882 29.3402 3.41522 29.458 3.35253C29.5759 3.28983 29.7379 3.26196 29.9515 3.26196C30.1651 3.26196 30.3271 3.2968 30.4376 3.37342C30.5481 3.44309 30.6291 3.5406 30.6659 3.64509C30.7101 3.75655 30.7248 3.88196 30.7248 4.02825V7.96414C30.7248 8.71649 30.5849 9.41311 30.3124 10.0401C30.0399 10.674 29.6348 11.2173 29.0972 11.6841C28.5669 12.1508 27.904 12.5131 27.1233 12.7708C26.3352 13.0286 25.444 13.1609 24.435 13.1609" fill="#EBE8E3"/>
<path d="M40.3777 13.1053C40.1641 13.1053 40.0094 13.0705 39.9063 13.0078C39.8032 12.9381 39.7222 12.8475 39.678 12.7361C39.6338 12.6177 39.6043 12.4923 39.6043 12.346V4.55082L41.1657 4.61351V12.4574C41.1657 12.5689 41.1436 12.6734 41.1068 12.7848C41.0626 12.8893 40.989 12.9729 40.8785 13.0217C40.768 13.0774 40.5986 13.1053 40.3777 13.1053ZM33.3145 4.7598C33.1598 4.7598 33.0273 4.73891 32.902 4.70408C32.7768 4.66228 32.6811 4.59261 32.6148 4.48115C32.5412 4.36969 32.5117 4.21643 32.5117 4.01441C32.5117 3.80542 32.5486 3.64521 32.6148 3.54769C32.6811 3.45016 32.7842 3.37353 32.902 3.33174C33.0273 3.28994 33.1599 3.26904 33.2998 3.26904H42.4031C42.5577 3.26904 42.6903 3.28994 42.8082 3.33174C42.926 3.37353 43.0217 3.45016 43.088 3.54769C43.1617 3.64521 43.1912 3.80542 43.1912 4.01441C43.1912 4.21643 43.1543 4.36969 43.088 4.48115C43.0217 4.59261 42.9186 4.66924 42.8008 4.70408C42.6756 4.74587 42.543 4.7598 42.3883 4.7598H33.3219H33.3145Z" fill="#EBE8E3"/>
<path d="M45.9165 13.1052C45.703 13.1052 45.5409 13.0703 45.4304 13.0076C45.3199 12.9449 45.2389 12.8474 45.1947 12.736C45.1505 12.6175 45.1211 12.4921 45.1211 12.3598V4.01429C45.1211 3.88194 45.1432 3.75655 45.1947 3.65206C45.2389 3.5406 45.3199 3.45004 45.4304 3.38734C45.5409 3.32464 45.703 3.28982 45.9165 3.28982L51.1163 3.27588C51.9118 3.27588 52.6114 3.38734 53.2154 3.60329C53.8193 3.81924 54.3275 4.13969 54.7326 4.56463C55.145 4.98956 55.447 5.51899 55.6532 6.15292C55.8594 6.78684 55.9625 7.52526 55.9625 8.36121V12.3459C55.9625 12.4922 55.9478 12.6245 55.911 12.736C55.8742 12.8544 55.8005 12.9449 55.69 13.0076C55.5796 13.0773 55.4102 13.1052 55.1892 13.1052C54.9756 13.1052 54.8136 13.0773 54.7031 13.0216C54.5927 12.9659 54.5116 12.8823 54.4748 12.7778C54.4306 12.6733 54.4159 12.5618 54.4159 12.4504V8.3821C54.4159 7.78301 54.3496 7.26054 54.2023 6.80774C54.0624 6.3619 53.8561 5.97876 53.5762 5.67225C53.3037 5.35877 52.9649 5.12889 52.5672 4.9826C52.1695 4.83631 51.6982 4.75968 51.1605 4.75968H46.6972V12.3389C46.6972 12.4852 46.6751 12.6175 46.6383 12.729C46.5941 12.8474 46.5205 12.938 46.41 13.0007C46.2995 13.0704 46.1301 13.0982 45.9092 13.0982" fill="#EBE8E3"/>
<path d="M58.6348 13.1052C58.4801 13.1052 58.3476 13.0843 58.2224 13.0425C58.0972 13.0007 58.0014 12.9241 57.9351 12.8196C57.8688 12.7151 57.832 12.5618 57.832 12.3598C57.832 12.1508 57.8688 11.9906 57.9351 11.8861C58.0088 11.7816 58.1045 11.705 58.2224 11.6701C58.3476 11.6353 58.4802 11.6144 58.6201 11.6144H60.292V4.33475L60.9401 4.80147C60.5792 4.8154 60.2625 4.81542 59.9974 4.81542C59.7322 4.81542 59.526 4.79452 59.3639 4.74575C59.2093 4.70396 59.0915 4.63428 59.0104 4.53675C58.9368 4.43923 58.8926 4.31384 58.8926 4.14665C58.8926 3.83317 58.9663 3.61722 59.1209 3.4988C59.2756 3.38037 59.5776 3.31071 60.0342 3.29677L64.851 3.26195C65.9631 3.24802 66.8911 3.43611 67.635 3.81229C68.3789 4.18846 68.9386 4.75272 69.3142 5.50506C69.6899 6.25741 69.874 7.2048 69.874 8.34726V12.3319C69.874 12.4782 69.8593 12.6106 69.8224 12.722C69.7856 12.8404 69.712 12.931 69.6015 12.9937C69.491 13.0634 69.3216 13.0912 69.1007 13.0912C68.8797 13.0912 68.725 13.0634 68.6145 13.0076C68.5041 12.9519 68.4304 12.8683 68.3862 12.7638C68.342 12.6593 68.3273 12.5479 68.3273 12.4364V8.36816C68.3273 7.56008 68.2021 6.89134 67.9591 6.35494C67.716 5.82551 67.3477 5.42146 66.869 5.14978C66.3903 4.8781 65.7864 4.73878 65.0572 4.73878H61.8755V12.0045C61.8755 12.3598 61.8018 12.6315 61.6619 12.8126C61.5219 12.9937 61.3231 13.0843 61.0653 13.0843H58.6201L58.6348 13.1052Z" fill="#EBE8E3"/>
<path d="M72.7596 13.1052C72.546 13.1052 72.384 13.0704 72.2735 13.0077C72.163 12.945 72.0894 12.8475 72.0452 12.736C72.001 12.6176 71.9862 12.4922 71.9862 12.3598V8.25672C71.9862 8.11043 72.0083 7.98505 72.0452 7.87359C72.0894 7.76213 72.163 7.67854 72.2809 7.61584C72.3987 7.55315 72.5607 7.52528 72.7743 7.52528C72.9879 7.52528 73.1499 7.56012 73.2604 7.62282C73.3709 7.68551 73.4519 7.77605 73.4887 7.88751C73.5256 7.99897 73.5476 8.12438 73.5476 8.27067V12.3737C73.5476 12.5061 73.5256 12.6315 73.474 12.736C73.4298 12.8475 73.3488 12.938 73.2457 13.0007C73.1426 13.0704 72.9732 13.0982 72.7522 13.0982M81.723 13.1052C81.5094 13.1052 81.3473 13.0773 81.2295 13.0216C81.1116 12.9659 81.0306 12.8823 80.9938 12.7778C80.9496 12.6733 80.9349 12.5618 80.9349 12.4504V8.38213C80.9349 7.58102 80.8097 6.91923 80.5666 6.37586C80.3236 5.83947 79.9553 5.43544 79.4766 5.16375C78.9978 4.89207 78.4013 4.75273 77.6868 4.75273H72.627C72.4723 4.75273 72.3398 4.73184 72.2145 4.69701C72.0893 4.65521 71.9936 4.58555 71.9273 4.47409C71.861 4.36263 71.8242 4.20938 71.8242 4.00736C71.8242 3.79838 71.861 3.64511 71.9273 3.54062C72.0009 3.44309 72.0967 3.36647 72.2145 3.32467C72.3398 3.28287 72.4724 3.255 72.6123 3.255H77.6353C78.7032 3.255 79.5944 3.45006 80.3162 3.84016C81.038 4.23027 81.5756 4.79454 81.9439 5.54689C82.3048 6.29227 82.4889 7.22573 82.4889 8.34728V12.3319C82.4889 12.4782 82.4742 12.6106 82.4374 12.722C82.4005 12.8405 82.3269 12.931 82.2164 12.9937C82.1059 13.0634 81.9439 13.0913 81.7303 13.0913" fill="#EBE8E3"/>
<path d="M89.4239 13.1052C89.2692 13.1052 89.1366 13.0843 89.0114 13.0425C88.8862 13.0007 88.7905 12.9241 88.7242 12.8196C88.6579 12.7151 88.6211 12.5618 88.6211 12.3598C88.6211 12.1508 88.6579 11.9906 88.7242 11.8861C88.7979 11.7816 88.8936 11.705 89.0114 11.6701C89.1366 11.6353 89.2692 11.6144 89.4092 11.6144H91.081V4.33475L91.7292 4.80147C91.3683 4.8154 91.0516 4.81542 90.7864 4.81542C90.5213 4.81542 90.3151 4.79452 90.1531 4.74575C89.9984 4.70396 89.8805 4.63428 89.7995 4.53675C89.7258 4.43923 89.6817 4.31384 89.6817 4.14665C89.6817 3.83317 89.7553 3.61722 89.91 3.4988C90.0647 3.38037 90.3666 3.31071 90.8233 3.29677L95.64 3.26195C96.7522 3.24802 97.6802 3.43611 98.4241 3.81229C99.168 4.18846 99.7277 4.75272 100.103 5.50506C100.479 6.25741 100.663 7.2048 100.663 8.34726V12.3319C100.663 12.4782 100.648 12.6106 100.612 12.722C100.575 12.8404 100.501 12.931 100.391 12.9937C100.28 13.0634 100.111 13.0912 99.8897 13.0912C99.6688 13.0912 99.5141 13.0634 99.4037 13.0076C99.2932 12.9519 99.2195 12.8683 99.1753 12.7638C99.1311 12.6593 99.1164 12.5479 99.1164 12.4364V8.36816C99.1164 7.56008 98.9912 6.89134 98.7481 6.35494C98.5051 5.82551 98.1369 5.42146 97.6581 5.14978C97.1794 4.8781 96.5754 4.73878 95.8463 4.73878H92.6645V12.0045C92.6645 12.3598 92.5909 12.6315 92.451 12.8126C92.311 12.9937 92.1122 13.0843 91.8544 13.0843H89.4092L89.4239 13.1052Z" fill="#EBE8E3"/>
<path d="M105.584 12.9867C105.326 12.8126 105.171 12.6384 105.127 12.4713C105.083 12.3041 105.142 12.1369 105.304 11.9697C105.952 11.3149 106.541 10.66 107.086 10.0052C107.631 9.35039 108.125 8.69557 108.574 8.04075C109.016 7.38593 109.414 6.73808 109.752 6.09022C110.091 5.44237 110.371 4.80844 110.599 4.18845L111.704 5.10102C111.424 5.90909 111.034 6.73111 110.533 7.56705C110.032 8.40299 109.458 9.25286 108.81 10.1097C108.162 10.9665 107.44 11.8443 106.659 12.7429C106.556 12.8683 106.446 12.9658 106.342 13.0355C106.239 13.1052 106.121 13.14 105.996 13.14C105.871 13.14 105.738 13.0843 105.584 12.9728M111.682 5.12889L110.607 4.75968H103.581C103.286 4.75968 103.072 4.69698 102.932 4.57855C102.792 4.45316 102.711 4.25812 102.689 3.97947L102.564 1.38805C102.549 1.24176 102.564 1.11636 102.608 1.01187C102.645 0.907376 102.733 0.823792 102.866 0.761096C102.991 0.6984 103.168 0.670532 103.389 0.670532C103.603 0.670532 103.75 0.705352 103.846 0.768048C103.941 0.830743 104.008 0.92828 104.045 1.03974C104.081 1.15816 104.103 1.29051 104.103 1.44377L104.207 3.25498H110.43C110.806 3.25498 111.1 3.33162 111.329 3.48488C111.55 3.63813 111.697 3.86105 111.756 4.1397C111.822 4.42531 111.793 4.74575 111.675 5.11496" fill="#EBE8E3"/>
<path d="M114.439 13.1052C114.226 13.1052 114.064 13.0704 113.953 13.0077C113.843 12.945 113.769 12.8475 113.725 12.736C113.681 12.6176 113.666 12.4922 113.666 12.3598V8.25672C113.666 8.11043 113.688 7.98505 113.725 7.87359C113.769 7.76213 113.843 7.67854 113.961 7.61584C114.078 7.55315 114.24 7.52528 114.454 7.52528C114.668 7.52528 114.83 7.56012 114.94 7.62282C115.051 7.68551 115.132 7.77605 115.168 7.88751C115.205 7.99897 115.227 8.12438 115.227 8.27067V12.3737C115.227 12.5061 115.205 12.6315 115.154 12.736C115.109 12.8475 115.028 12.938 114.925 13.0007C114.822 13.0704 114.653 13.0982 114.432 13.0982M123.403 13.1052C123.189 13.1052 123.027 13.0773 122.909 13.0216C122.791 12.9659 122.71 12.8823 122.674 12.7778C122.629 12.6733 122.615 12.5618 122.615 12.4504V8.38213C122.615 7.58102 122.489 6.91923 122.246 6.37586C122.003 5.83947 121.635 5.43544 121.156 5.16375C120.678 4.89207 120.081 4.75273 119.367 4.75273H114.307C114.152 4.75273 114.019 4.73184 113.894 4.69701C113.769 4.65521 113.673 4.58555 113.607 4.47409C113.541 4.36263 113.504 4.20938 113.504 4.00736C113.504 3.79838 113.541 3.64511 113.607 3.54062C113.681 3.44309 113.776 3.36647 113.894 3.32467C114.019 3.28287 114.152 3.255 114.292 3.255H119.315C120.383 3.255 121.274 3.45006 121.996 3.84016C122.718 4.23027 123.255 4.79454 123.624 5.54689C123.984 6.29227 124.169 7.22573 124.169 8.34728V12.3319C124.169 12.4782 124.154 12.6106 124.117 12.722C124.08 12.8405 124.007 12.931 123.896 12.9937C123.786 13.0634 123.624 13.0913 123.41 13.0913" fill="#EBE8E3"/>
<path d="M132.062 13.1052C131.863 13.1052 131.709 13.0773 131.591 13.0216C131.473 12.9659 131.392 12.8823 131.355 12.7778C131.311 12.6733 131.296 12.5618 131.296 12.4504V7.89449C131.296 7.19787 131.208 6.6127 131.024 6.14597C130.84 5.67923 130.575 5.33092 130.221 5.10104C129.867 4.87116 129.433 4.75273 128.903 4.75273H127.481C127.326 4.75273 127.194 4.73184 127.076 4.69701C126.958 4.65521 126.862 4.58555 126.796 4.47409C126.73 4.36263 126.693 4.20938 126.693 4.00736C126.693 3.79838 126.73 3.64511 126.796 3.54062C126.87 3.44309 126.958 3.36647 127.076 3.32467C127.194 3.28287 127.319 3.255 127.466 3.255H128.851C129.742 3.255 130.479 3.42917 131.068 3.77052C131.657 4.11186 132.099 4.62734 132.394 5.30307C132.696 5.97879 132.843 6.82866 132.843 7.84572V12.3319C132.843 12.4782 132.828 12.6106 132.791 12.722C132.755 12.8405 132.681 12.931 132.57 12.9937C132.46 13.0634 132.291 13.0913 132.07 13.0913M126.737 13.1052C126.583 13.1052 126.45 13.0843 126.332 13.0425C126.214 13.0007 126.119 12.9241 126.052 12.8196C125.986 12.7151 125.949 12.5618 125.949 12.3598C125.949 12.1508 125.986 11.9906 126.052 11.8861C126.126 11.7816 126.214 11.705 126.332 11.6702C126.45 11.6353 126.575 11.6144 126.723 11.6144H132.136L132.121 13.1122H126.745L126.737 13.1052Z" fill="#EBE8E3"/>
<path d="M135.885 8.28455L134.743 4.24418C134.706 4.09092 134.684 3.94462 134.684 3.81923C134.684 3.69384 134.721 3.58239 134.817 3.48486C134.913 3.38734 135.067 3.32463 135.288 3.27587C135.561 3.22014 135.76 3.22014 135.885 3.27587C136.01 3.3316 136.098 3.41519 136.15 3.53361C136.194 3.65204 136.231 3.75655 136.253 3.85407L137.078 6.98188L135.885 8.27758V8.28455ZM145.901 7.83873V12.3598C145.901 12.5618 145.879 12.7151 145.843 12.8265C145.798 12.938 145.725 13.0146 145.614 13.0494C145.504 13.0843 145.342 13.1052 145.128 13.1052H139.192C139.037 13.1052 138.905 13.0843 138.787 13.0355C138.669 12.9867 138.573 12.9171 138.507 12.8126C138.441 12.7081 138.404 12.5548 138.404 12.3528C138.404 12.1438 138.441 11.9836 138.507 11.8791C138.58 11.7746 138.669 11.705 138.787 11.6632C138.905 11.6214 139.045 11.6074 139.207 11.6074H144.355V7.88748C144.355 7.17693 144.23 6.58481 143.972 6.11111C143.714 5.63741 143.338 5.27518 142.838 5.03136C142.337 4.78754 141.718 4.66215 140.982 4.66215C140.429 4.66215 139.943 4.74574 139.523 4.91292C139.103 5.08011 138.735 5.31 138.426 5.60954C138.116 5.90909 137.859 6.25739 137.66 6.6684C137.461 7.07243 137.306 7.51132 137.203 7.99199L136.253 12.311C136.231 12.4573 136.194 12.5897 136.15 12.7081C136.106 12.8265 136.025 12.931 135.914 13.0007C135.804 13.0703 135.649 13.1121 135.45 13.1121C135.134 13.1121 134.913 13.0494 134.795 12.9171C134.677 12.7847 134.633 12.6036 134.677 12.3598L135.922 6.59178L136.481 6.92616C136.599 6.51516 136.747 6.12503 136.931 5.75583C137.115 5.38662 137.328 5.03832 137.571 4.72484C137.815 4.41137 138.116 4.13968 138.455 3.90979C138.801 3.67991 139.207 3.50575 139.663 3.38036C140.12 3.25496 140.65 3.1853 141.261 3.1853C142.27 3.1853 143.117 3.36642 143.802 3.72866C144.487 4.09091 145.01 4.61338 145.364 5.31C145.725 5.99965 145.901 6.84952 145.901 7.84568" fill="#EBE8E3"/>
<path d="M91.6348 30.5763C91.4801 30.5763 91.3476 30.5554 91.2224 30.5136C91.0972 30.4718 91.0014 30.3952 90.9351 30.2907C90.8688 30.1862 90.832 30.0329 90.832 29.8309C90.832 29.6219 90.8688 29.4617 90.9351 29.3572C91.0088 29.2527 91.1045 29.1761 91.2224 29.1413C91.3476 29.1064 91.4802 29.0856 91.6201 29.0856H93.292V21.8059L93.9401 22.2726C93.5792 22.2866 93.2625 22.2865 92.9974 22.2865C92.7322 22.2865 92.526 22.2656 92.3639 22.2169C92.2093 22.1751 92.0915 22.1054 92.0104 22.0079C91.9368 21.9104 91.8926 21.785 91.8926 21.6178C91.8926 21.3043 91.9663 21.0884 92.1209 20.9699C92.2756 20.8515 92.5776 20.7819 93.0342 20.7679L97.851 20.7331C98.9631 20.7191 99.8911 20.9072 100.635 21.2834C101.379 21.6596 101.939 22.2238 102.314 22.9762C102.69 23.7285 102.874 24.676 102.874 25.8184V29.8031C102.874 29.9494 102.859 30.0817 102.822 30.1932C102.786 30.3116 102.712 30.4021 102.601 30.4648C102.491 30.5345 102.322 30.5624 102.101 30.5624C101.88 30.5624 101.725 30.5345 101.615 30.4788C101.504 30.4231 101.43 30.3395 101.386 30.235C101.342 30.1305 101.327 30.019 101.327 29.9076V25.8393C101.327 25.0312 101.202 24.3625 100.959 23.8261C100.716 23.2966 100.348 22.8926 99.869 22.6209C99.3903 22.3493 98.7864 22.2099 98.0572 22.2099H94.8755V29.4757C94.8755 29.8309 94.8018 30.1026 94.6619 30.2837C94.522 30.4649 94.3231 30.5554 94.0653 30.5554H91.6201L91.6348 30.5763Z" fill="#EBE8E3"/>
<path d="M105.818 25.8742C105.604 25.8742 105.449 25.8394 105.346 25.7628C105.243 25.6931 105.169 25.6026 105.125 25.4911C105.088 25.3797 105.066 25.2612 105.066 25.1289V21.4716C105.066 21.3393 105.088 21.2208 105.125 21.1024C105.169 20.9909 105.243 20.9004 105.354 20.8377C105.464 20.768 105.626 20.7402 105.84 20.7402C106.061 20.7402 106.23 20.775 106.341 20.8447C106.451 20.9143 106.525 21.0049 106.562 21.1094C106.598 21.2139 106.613 21.3393 106.613 21.4856V25.1428C106.613 25.2752 106.591 25.4005 106.554 25.505C106.51 25.6165 106.436 25.7071 106.326 25.7698C106.215 25.8394 106.046 25.8673 105.825 25.8673" fill="#EBE8E3"/>
<path d="M114.617 30.5764C114.418 30.5764 114.263 30.5486 114.146 30.4928C114.028 30.4371 113.947 30.3535 113.91 30.249C113.866 30.1445 113.851 30.0331 113.851 29.9216V25.3657C113.851 24.6691 113.763 24.084 113.578 23.6172C113.394 23.1505 113.129 22.8022 112.776 22.5723C112.422 22.3424 111.988 22.224 111.457 22.224H110.036C109.881 22.224 109.749 22.2031 109.631 22.1682C109.513 22.1264 109.417 22.0568 109.351 21.9453C109.285 21.8339 109.248 21.6806 109.248 21.4786C109.248 21.2696 109.285 21.1164 109.351 21.0119C109.425 20.9143 109.513 20.8377 109.631 20.7959C109.749 20.7541 109.874 20.7263 110.021 20.7263H111.406C112.297 20.7263 113.033 20.9004 113.623 21.2417C114.205 21.5831 114.654 22.0986 114.948 22.7743C115.25 23.45 115.398 24.2999 115.398 25.317V29.8032C115.398 29.9495 115.383 30.0818 115.346 30.1933C115.309 30.3117 115.236 30.4023 115.125 30.465C115.015 30.5346 114.845 30.5625 114.624 30.5625M109.292 30.5764C109.137 30.5764 109.005 30.5555 108.887 30.5137C108.769 30.4719 108.673 30.3953 108.607 30.2908C108.541 30.1863 108.504 30.0331 108.504 29.831C108.504 29.6221 108.541 29.4618 108.607 29.3573C108.681 29.2529 108.769 29.1762 108.887 29.1414C109.005 29.1066 109.13 29.0857 109.277 29.0857H114.691L114.676 30.5834H109.299L109.292 30.5764Z" fill="#EBE8E3"/>
<path d="M118.169 30.5762C117.956 30.5762 117.801 30.5414 117.698 30.4787C117.595 30.416 117.521 30.3185 117.477 30.207C117.433 30.0886 117.418 29.9632 117.418 29.8308V21.4714C117.418 21.3391 117.44 21.2137 117.477 21.1092C117.514 20.9977 117.595 20.9072 117.705 20.8445C117.816 20.7748 117.978 20.7469 118.191 20.7469C118.412 20.7469 118.582 20.7818 118.692 20.8584C118.803 20.9281 118.876 21.0186 118.913 21.1231C118.95 21.2276 118.965 21.353 118.965 21.4993V29.8587C118.965 29.9911 118.943 30.1165 118.906 30.2279C118.869 30.3394 118.788 30.4299 118.677 30.4926C118.567 30.5623 118.398 30.5902 118.177 30.5902" fill="#EBE8E3"/>
<path d="M129.372 30.5763C129.159 30.5763 128.997 30.5485 128.886 30.4927C128.776 30.437 128.695 30.3534 128.65 30.2489C128.606 30.1444 128.584 30.033 128.584 29.9215V25.8532C128.584 25.2542 128.518 24.7317 128.378 24.2719C128.245 23.8191 128.039 23.436 127.759 23.1364C127.487 22.8299 127.148 22.607 126.75 22.4537C126.353 22.3075 125.881 22.2308 125.329 22.2308H121.447C121.293 22.2308 121.16 22.2099 121.035 22.1751C120.91 22.1333 120.814 22.0636 120.748 21.9522C120.681 21.8407 120.645 21.6875 120.645 21.4855C120.645 21.2765 120.681 21.1232 120.748 21.0187C120.821 20.9212 120.91 20.8446 121.028 20.8028C121.145 20.761 121.278 20.7331 121.433 20.7331H125.277C126.087 20.7331 126.794 20.8446 127.406 21.0605C128.017 21.2765 128.525 21.5969 128.93 22.0218C129.335 22.4468 129.637 22.9762 129.844 23.6101C130.05 24.2441 130.153 24.9825 130.153 25.8184V29.8031C130.153 29.9494 130.131 30.0817 130.094 30.1932C130.05 30.3116 129.976 30.4022 129.866 30.4649C129.755 30.5345 129.593 30.5624 129.38 30.5624" fill="#EBE8E3"/>
<path d="M133.106 25.8742C132.893 25.8742 132.738 25.8394 132.628 25.7628C132.524 25.6931 132.451 25.6026 132.407 25.4911C132.362 25.3797 132.348 25.2612 132.348 25.1289V21.4716C132.348 21.3393 132.37 21.2208 132.407 21.1024C132.443 20.9909 132.524 20.9004 132.635 20.8377C132.745 20.768 132.907 20.7402 133.121 20.7402C133.342 20.7402 133.511 20.775 133.622 20.8447C133.732 20.9143 133.806 21.0049 133.843 21.1094C133.88 21.2139 133.894 21.3393 133.894 21.4856V25.1428C133.894 25.2752 133.872 25.4005 133.835 25.505C133.799 25.6165 133.718 25.7071 133.607 25.7698C133.497 25.8394 133.327 25.8673 133.106 25.8673" fill="#EBE8E3"/>
<path d="M139.662 29.1134C139.5 29.0368 139.338 28.9184 139.175 28.7651C139.021 28.6118 138.888 28.4029 138.778 28.1312L136.443 21.8129C136.399 21.6666 136.362 21.5342 136.347 21.4158C136.333 21.2974 136.362 21.1859 136.443 21.0953C136.524 20.9978 136.679 20.9212 136.9 20.8515C137.135 20.7819 137.312 20.7749 137.445 20.8167C137.57 20.8585 137.68 20.9351 137.761 21.0466C137.842 21.158 137.909 21.2904 137.953 21.4437L140.626 28.8417L139.662 29.1065V29.1134ZM137.128 31.0291C136.951 31.0709 136.797 31.0918 136.649 31.0849C136.509 31.0849 136.391 31.0291 136.288 30.9386C136.193 30.841 136.112 30.6948 136.053 30.4788C136.008 30.2907 136.008 30.1374 136.053 30.026C136.097 29.9145 136.193 29.824 136.325 29.7613C136.458 29.6986 136.612 29.6359 136.774 29.5802L142.099 28.1521C142.615 27.9849 143.042 27.769 143.374 27.4973C143.705 27.2256 143.955 26.8842 144.11 26.4732C144.265 26.0622 144.346 25.5955 144.346 25.073V21.381C144.346 21.2625 144.361 21.1511 144.397 21.0536C144.434 20.956 144.508 20.8794 144.618 20.8237C144.729 20.761 144.891 20.7331 145.104 20.7331C145.325 20.7331 145.495 20.7679 145.613 20.8306C145.73 20.9003 145.811 20.9908 145.856 21.1023C145.9 21.2207 145.929 21.3461 145.929 21.4924L145.915 24.7178C145.9 25.3586 145.819 25.9438 145.657 26.4663C145.502 26.9887 145.266 27.4485 144.965 27.8456C144.663 28.2427 144.272 28.591 143.793 28.8835C143.315 29.1761 142.762 29.4199 142.129 29.608L137.121 31.0222L137.128 31.0291Z" fill="#EBE8E3"/>
</svg>
