<svg width="651" height="1251" viewBox="0 0 651 1251" fill="none" xmlns="http://www.w3.org/2000/svg">
<g opacity="0.3">
<path d="M271.053 588.028V156.848M406.284 340.457V78.7619M135.984 659.296V78.9244M271.215 156.848L406.284 78.9244L271.215 1L135.984 79.0864L271.215 156.848Z" stroke="#B2AEA8" stroke-width="2" stroke-linecap="round" stroke-linejoin="round"/>
<path d="M383.766 360.259L512.99 434.449" stroke="#B2AEA8" stroke-width="2" stroke-linecap="round" stroke-linejoin="round"/>
<path d="M265.475 1249.08L270.994 740.952M265.475 1249.08L649.25 1026.19L648.114 356.689M265.475 1249.08L-132.75 1019.69V473.088M512.884 434.613L511.585 826.831L406.225 880.728V663.028L271.156 585.104L135.925 663.19M396.809 668.386L271.156 740.952M271.156 740.952L136.899 663.677L135.925 663.19M271.156 740.952L377.815 679.425M135.925 663.19L132.679 884.787L-1.41508 812.545L-0.278564 548.577M377.815 646.632V356.689L513.046 278.603L648.114 356.527M513.046 434.451L641.783 360.098" stroke="#B2AEA8" stroke-width="2" stroke-linecap="round" stroke-linejoin="round"/>
<path d="M-132.75 475.598C-132.75 475.598 -111.879 340 5.22881 340C116.042 340 136.25 479.41 136.25 479.41L5.22881 555L-132.75 475.598Z" stroke="#B2AEA8" stroke-width="2" stroke-linejoin="round"/>
</g>
</svg>
