<svg width="25" height="24" viewBox="0 0 25 24" fill="none" xmlns="http://www.w3.org/2000/svg">
<path d="M21.3061 6.47919H3.48917C3.08115 6.47919 2.75 6.14804 2.75 5.74002C2.75 5.332 3.08115 5.00085 3.48917 5.00085H21.3061C21.7141 5.00085 22.0452 5.332 22.0452 5.74002C22.0452 6.14804 21.7141 6.47919 21.3061 6.47919Z" fill="white"/>
<path d="M21.3061 12.7149H3.48917C3.08115 12.7149 2.75 12.3838 2.75 11.9757C2.75 11.5677 3.08115 11.2366 3.48917 11.2366H21.3061C21.7141 11.2366 22.0452 11.5677 22.0452 11.9757C22.0452 12.3838 21.7141 12.7149 21.3061 12.7149Z" fill="white"/>
<path d="M21.3061 18.9504H3.48917C3.08115 18.9504 2.75 18.6192 2.75 18.2112C2.75 17.8032 3.08115 17.472 3.48917 17.472H21.3061C21.7141 17.472 22.0452 17.8032 22.0452 18.2112C22.0452 18.6192 21.7141 18.9504 21.3061 18.9504Z" fill="white"/>
</svg>
