<svg width="17" height="18" viewBox="0 0 17 18" fill="none" xmlns="http://www.w3.org/2000/svg">
<path d="M13.3852 17.0679H3.56272C2.01156 17.0679 0.75 15.8064 0.75 14.2552V7.46702C0.75 6.81101 1.03738 6.19011 1.53761 5.76667L7.02918 1.11102C7.8651 0.402364 9.07841 0.402364 9.91432 1.11102L15.4103 5.76887C15.9105 6.19231 16.1979 6.81321 16.1979 7.47141V14.2596C16.1979 15.8108 14.9363 17.0723 13.3852 17.0723V17.0679ZM8.47285 1.67487C8.21177 1.67487 7.95285 1.76482 7.74004 1.94473L2.24852 6.60038C1.99401 6.81539 1.847 7.13134 1.847 7.46482V14.253C1.847 15.1986 2.6171 15.9687 3.56272 15.9687H13.3852C14.3308 15.9687 15.1009 15.1986 15.1009 14.253V7.46482C15.1009 7.13134 14.9539 6.81539 14.6994 6.60038L9.20347 1.94253C8.99065 1.76262 8.73174 1.67267 8.47065 1.67267L8.47285 1.67487Z" fill="white"/>
<path d="M10.5445 13.0705H6.40006C6.09729 13.0705 5.85156 12.8248 5.85156 12.522V8.37754C5.85156 8.07477 6.09729 7.82904 6.40006 7.82904H10.5445C10.8473 7.82904 11.093 8.07477 11.093 8.37754V12.522C11.093 12.8248 10.8473 13.0705 10.5445 13.0705ZM6.95076 11.9735H9.99819V8.92604H6.95076V11.9735Z" fill="white"/>
</svg>
