<svg width="17" height="17" viewBox="0 0 17 17" fill="none" xmlns="http://www.w3.org/2000/svg">
<path d="M12.1633 15.5774C12.0134 15.5774 11.8635 15.5254 11.7487 15.4194L5.41755 9.56914C4.52748 8.74669 4.52748 7.41129 5.41755 6.58884L11.7487 0.738608C11.9783 0.526502 12.3483 0.526502 12.5778 0.738608C12.8074 0.950714 12.8074 1.29269 12.5778 1.5048L6.24672 7.35502C6.03826 7.54764 5.92111 7.80521 5.92111 8.08008C5.92111 8.35495 6.03592 8.6125 6.24672 8.80513L12.5778 14.6553C12.8074 14.8675 12.8074 15.2094 12.5778 15.4215C12.4631 15.5276 12.3132 15.5795 12.1633 15.5795V15.5774Z" fill="white"/>
</svg>
